<svg width="40" height="40" viewBox="0 0 40 40" fill="none" xmlns="http://www.w3.org/2000/svg">
<path d="M19.9987 1.56866V26.8475C19.9987 28.9375 23.1109 28.9406 23.1109 26.8475V1.56866C23.1109 -0.521302 19.9987 -0.524474 19.9987 1.56866ZM22.2862 38.8173C21.9919 37.393 21.5435 35.9438 20.9534 34.5098C20.1167 32.4777 18.9932 30.5858 17.6144 28.8867C16.2651 27.2242 14.6922 25.7706 12.9391 24.5667C11.1865 23.3631 9.28546 22.4303 7.28845 21.7942C5.24889 21.1448 3.14068 20.8155 1.02264 20.8155H0.976513C0.684382 20.816 0.424789 20.9373 0.245291 21.1569C0.089213 21.348 -0.000178515 21.6082 2.67662e-07 21.8709C0.000179051 22.1172 0.0774133 22.3456 0.217579 22.514C0.37902 22.7077 0.609114 22.8101 0.883189 22.8101H0.945405C2.45308 22.8101 3.92125 22.9739 5.30896 23.2973C9.00995 24.1579 12.3909 26.119 15.0868 28.9684C17.7755 31.8107 19.6179 35.3605 20.4143 39.2347C20.51 39.6994 20.8658 39.9998 21.3208 40C21.321 40 21.321 40 21.321 40C21.6353 40 21.9333 39.8573 22.1185 39.6181C22.2878 39.3992 22.3475 39.1149 22.2862 38.8173ZM39.968 16.6637C39.9156 16.499 39.805 16.3656 39.6564 16.2878L36.3436 14.5527L35.2465 13.978L33.8594 13.2515L33.3169 12.9674L28.6203 10.5076C28.5341 10.4625 28.4376 10.4386 28.3416 10.4386C28.1045 10.4386 27.8914 10.5759 27.7852 10.7968C27.7418 10.8868 27.7189 10.9873 27.7189 11.0877C27.7189 11.3351 27.8505 11.5575 28.0622 11.6685L31.9224 13.6902L32.472 13.978L33.8594 14.7046L34.6415 15.1143L39.0983 17.4484C39.1846 17.4936 39.281 17.5175 39.377 17.5175C39.614 17.5175 39.8273 17.3803 39.9335 17.1594C40.0081 17.0046 40.0204 16.8283 39.968 16.6637Z" fill="black"/>
</svg>
